<?xml version="1.0" standalone="no"?>
<!DOCTYPE svg PUBLIC "-//W3C//DTD SVG 20010904//EN"
 "http://www.w3.org/TR/2001/REC-SVG-20010904/DTD/svg10.dtd">
<svg version="1.0" xmlns="http://www.w3.org/2000/svg"
 width="512.000000pt" height="512.000000pt" viewBox="0 0 512.000000 512.000000"
 preserveAspectRatio="xMidYMid meet">

<g transform="translate(0.000000,512.000000) scale(0.100000,-0.100000)"
fill="#000000" stroke="none">
<path d="M1146 5104 c-248 -54 -456 -228 -551 -462 -57 -141 -69 -330 -30
-477 56 -207 208 -392 400 -485 158 -77 127 -74 827 -77 l627 -4 29 -52 c85
-151 306 -277 485 -277 51 0 62 4 88 29 36 37 38 78 6 152 -23 52 -51 149 -45
154 2 1 30 7 63 14 130 28 271 107 370 207 148 151 217 320 217 534 0 84 -5
135 -20 191 -67 251 -252 447 -502 532 l-95 32 -900 2 c-769 1 -910 0 -969
-13z m1868 -204 c107 -27 169 -63 252 -145 217 -213 226 -547 22 -770 -100
-110 -216 -166 -382 -184 -69 -8 -84 -13 -103 -36 -20 -22 -23 -37 -23 -103 1
-42 5 -96 9 -119 l8 -42 -40 21 c-62 31 -141 116 -162 173 -10 28 -31 62 -46
78 l-29 27 -633 0 c-403 0 -655 4 -693 11 -32 5 -96 28 -141 50 -342 168 -418
622 -148 891 73 74 192 140 280 156 28 6 423 10 901 11 817 1 854 0 928 -19z"/>
<path d="M1234 4646 c-46 -46 -46 -86 0 -132 l34 -34 819 0 c910 0 850 -5 880
67 12 31 12 38 -4 71 -10 20 -29 42 -43 49 -19 10 -210 13 -838 13 l-814 0
-34 -34z"/>
<path d="M1234 4206 c-46 -46 -46 -86 0 -132 l34 -34 497 0 497 0 29 29 c38
39 40 97 5 138 l-24 28 -502 3 -501 3 -35 -35z"/>
<path d="M3790 3800 c-205 -54 -370 -188 -463 -375 -55 -110 -71 -182 -71
-320 0 -111 3 -133 46 -295 26 -96 51 -209 57 -250 17 -127 63 -237 133 -316
17 -19 29 -36 27 -38 -2 -2 -83 -27 -179 -56 -96 -29 -203 -66 -237 -82 -115
-53 -213 -163 -263 -293 -21 -53 -24 -82 -28 -242 l-4 -183 -204 0 -204 0 48
60 c61 75 124 201 152 305 19 68 23 115 27 317 4 149 1 272 -6 335 -22 184
-95 344 -219 475 -113 119 -222 187 -379 234 -76 23 -107 27 -223 28 -176 1
-292 -30 -438 -115 -85 -51 -238 -209 -289 -299 -96 -172 -117 -296 -110 -649
4 -211 7 -257 26 -326 28 -104 89 -226 151 -303 l50 -62 -555 0 c-408 0 -561
-3 -580 -12 -53 -24 -55 -40 -55 -388 0 -348 2 -364 55 -388 16 -8 82 -12 180
-12 l155 0 0 -235 c0 -259 4 -282 57 -304 21 -8 154 -11 487 -9 l458 3 24 28
c33 38 33 96 0 134 l-24 28 -402 3 -401 3 3 272 3 273 38 76 c42 85 115 161
189 196 25 11 160 56 302 100 l258 80 64 -29 c122 -55 206 -73 349 -73 142 0
227 18 348 72 l62 29 265 -82 c146 -45 285 -91 308 -104 97 -50 168 -138 203
-252 16 -53 19 -94 19 -310 l0 -249 -396 0 -396 0 -29 -29 c-38 -39 -40 -97
-5 -138 l24 -28 458 -3 c333 -2 466 1 487 9 53 22 57 45 57 304 l0 235 920 0
c1007 0 964 -3 989 58 9 21 11 168 9 568 l-3 539 -24 60 c-53 132 -150 240
-264 293 -34 16 -141 53 -237 82 -96 29 -177 54 -179 56 -2 2 10 19 27 38 70
80 115 186 133 313 6 42 32 154 57 247 45 165 47 176 46 306 0 119 -3 144 -27
215 -38 113 -90 198 -177 286 -82 83 -169 137 -283 176 -102 36 -289 42 -397
13z m311 -196 c227 -68 379 -265 379 -492 l0 -64 -43 58 c-24 33 -62 76 -85
97 -60 53 -88 50 -189 -17 -93 -61 -211 -107 -363 -142 -109 -24 -328 -49
-339 -38 -3 3 -6 51 -5 107 0 79 5 115 22 162 59 160 195 287 353 329 73 20
203 20 270 0z m244 -729 c33 -67 35 -78 35 -167 0 -52 -5 -119 -10 -148 -25
-130 -110 -242 -228 -301 -64 -32 -72 -34 -177 -34 -105 0 -113 2 -177 34
-120 60 -204 172 -228 304 -6 31 -9 97 -8 148 l3 93 98 13 c212 26 390 77 522
147 l80 43 27 -30 c15 -17 43 -63 63 -102z m-2420 20 c182 -38 352 -170 432
-335 64 -132 68 -160 68 -460 0 -300 -4 -328 -68 -460 -72 -148 -217 -271
-379 -322 -333 -103 -695 98 -795 442 -24 84 -31 516 -9 631 65 347 406 576
751 504z m1875 -854 l65 -18 5 -110 c5 -121 12 -135 66 -153 28 -10 40 -9 72
7 47 23 61 61 61 173 l1 86 68 17 67 17 268 -84 c287 -89 326 -108 384 -184
51 -67 63 -124 63 -294 l0 -148 -956 0 -956 0 4 168 c3 145 6 173 24 213 28
61 83 121 136 148 37 20 526 178 553 180 6 0 39 -8 75 -18z m-3195 -930 c-87
-72 -160 -186 -191 -300 l-17 -61 -99 0 -98 0 0 200 0 200 226 0 226 0 -47
-39z m4315 -161 l0 -200 -864 0 -864 0 -11 48 c-25 98 -80 193 -160 274 l-77
78 988 0 988 0 0 -200z"/>
<path d="M1730 172 c-39 -40 -42 -97 -6 -139 35 -40 107 -40 142 0 53 62 19
153 -63 164 -37 5 -45 2 -73 -25z"/>
</g>
</svg>
