<svg version="1.1" id="Layer_1" xmlns="http://www.w3.org/2000/svg" xmlns:xlink="http://www.w3.org/1999/xlink" x="0px" y="0px"
	 width="100%" viewBox="0 0 200 200" enable-background="new 0 0 200 200" xml:space="preserve">
<path fill="#FFFFFF" opacity="1.000000" stroke="none" 
	d="
M110.000000,201.000000 
	C73.355949,201.000000 37.211899,201.000000 1.033923,201.000000 
	C1.033923,134.397644 1.033923,67.795280 1.033923,1.096454 
	C67.560547,1.096454 134.121292,1.096454 200.841003,1.096454 
	C200.841003,67.666367 200.841003,134.333145 200.841003,201.000000 
	C170.795563,201.000000 140.647781,201.000000 110.000000,201.000000 
M143.344620,132.671967 
	C143.515610,132.316391 143.686600,131.960815 143.896362,131.219971 
	C143.896362,131.219971 144.204178,130.985062 144.592056,130.743698 
	C144.824432,130.520950 144.947083,130.248764 145.003601,129.983215 
	C145.003601,129.983215 144.935577,129.962738 145.680984,129.857559 
	C146.760010,127.394653 148.472855,124.987022 148.694199,122.449310 
	C148.840668,120.770065 146.847534,118.904205 145.938934,117.066177 
	C145.938934,117.066177 145.851898,117.173737 145.956802,116.364113 
	C146.087509,114.006912 145.760773,112.003288 142.275406,112.037567 
	C142.006622,111.888947 141.867828,111.661133 141.888840,110.571327 
	C141.334671,106.476387 138.122330,106.568924 135.194656,106.467873 
	C127.301727,106.195442 119.713737,106.631783 116.163483,115.577400 
	C115.794739,116.506508 114.766624,117.173935 114.160034,117.836517 
	C107.830383,113.407104 101.859230,109.228569 95.472832,104.863495 
	C95.207764,104.690712 95.024551,104.454445 94.961967,103.380051 
	C93.105080,101.782219 91.248192,100.184387 89.391304,98.586555 
	C88.903381,99.000076 88.415451,99.413589 87.927521,99.827110 
	C88.306915,100.895340 88.686302,101.963577 88.957375,103.697708 
	C87.385811,105.172028 85.814247,106.646339 83.412727,108.112488 
	C80.380997,109.881958 75.233368,107.301834 73.324692,112.817131 
	C72.890610,112.787598 72.456535,112.758057 71.843285,112.061035 
	C69.348145,111.091476 66.771400,110.282249 64.397728,109.074036 
	C63.437790,108.585419 62.921318,107.225563 62.203037,106.262169 
	C63.147579,105.834702 64.092125,105.407234 65.782936,105.080864 
	C70.816788,107.920189 75.783806,105.932724 81.496918,104.878204 
	C82.004196,103.935013 82.511475,102.991814 83.284637,101.453339 
	C84.189735,99.968788 85.094833,98.484238 86.833984,96.997955 
	C89.861778,97.676529 92.889572,98.355095 96.543060,99.329529 
	C99.338875,102.513283 101.799042,102.670540 104.518440,98.997589 
	C106.777809,95.945953 105.871529,94.019249 103.327484,91.881035 
	C95.834450,85.583328 95.478958,76.521667 97.913979,70.585846 
	C103.634941,56.639904 119.214119,53.247620 130.604492,63.265152 
	C133.313568,65.647713 134.896698,65.009827 136.603287,62.546616 
	C137.434433,61.346977 138.150055,60.067303 139.061874,58.590836 
	C134.980087,54.845272 131.044846,51.234184 126.708923,47.255405 
	C128.827362,46.156124 130.137100,45.486172 131.438110,44.799725 
	C137.481705,41.610981 140.083328,36.096806 138.943954,28.903622 
	C138.131149,23.772158 133.571350,19.092731 128.417313,18.100803 
	C121.644073,16.797245 115.722450,19.515640 112.332718,25.320507 
	C111.135597,27.370564 109.636147,29.244068 108.250801,31.232510 
	C103.689041,27.421196 99.673676,24.066395 95.607903,20.669476 
	C91.484436,25.086342 87.774368,29.060394 83.292488,33.027069 
	C82.564529,34.082870 81.836571,35.138672 80.965660,36.858971 
	C79.576866,38.658081 78.300438,40.559090 76.778496,42.237465 
	C71.949837,47.562450 67.029549,52.804356 61.418163,58.084316 
	C60.322239,59.468414 59.226318,60.852516 58.066437,62.974243 
	C58.747322,64.511925 59.146637,66.278748 60.170712,67.537148 
	C62.012745,69.800682 64.229469,71.759293 65.627495,74.137329 
	C63.295601,72.804123 60.795990,71.691330 58.676712,70.078712 
	C56.331009,68.293800 54.324429,66.285477 51.732578,70.442749 
	C51.135235,70.958298 50.537891,71.473839 49.519596,72.217186 
	C49.258278,72.423058 49.087345,72.687393 49.000694,72.999695 
	C49.000694,72.999695 49.011635,73.009583 48.225906,73.002533 
	C42.184177,74.285873 42.155499,80.477211 38.941101,84.813217 
	C37.648483,86.218254 36.355865,87.623291 34.348221,89.071510 
	C29.942757,91.081268 26.385757,93.787056 25.773733,99.751694 
	C23.146654,102.810249 20.519575,105.868805 17.252363,108.659447 
	C15.633482,109.247772 13.314708,109.398720 12.595662,110.549362 
	C11.898593,111.664841 12.247452,114.546074 13.210535,115.325829 
	C14.650020,116.491295 17.029911,116.495255 18.999695,117.000000 
	C18.999695,117.000000 19.006294,116.988976 19.070721,117.687073 
	C20.103432,118.431114 21.136143,119.175163 22.796339,120.046638 
	C23.856310,121.050056 24.916281,122.053467 26.001007,123.775658 
	C28.305330,125.529198 30.609652,127.282730 33.377857,129.230469 
	C33.585220,129.486557 33.792587,129.742630 34.010632,130.736542 
	C35.604893,131.835434 37.199150,132.934341 39.288567,134.497818 
	C43.508553,138.107422 47.728542,141.717026 51.994453,145.990021 
	C52.728100,146.628906 53.461742,147.267807 54.732685,148.177032 
	C55.480595,148.806427 56.228504,149.435822 57.116066,150.762405 
	C58.708225,153.149902 60.300388,155.537399 62.444118,158.751999 
	C62.516312,158.721191 63.840630,158.155823 65.765610,157.851700 
	C66.844994,158.897705 67.924370,159.943710 69.220291,161.453842 
	C69.510231,161.619247 69.800171,161.784653 70.020264,161.990219 
	C70.020264,161.990219 70.043541,161.913071 70.271866,162.413315 
	C70.587326,162.581253 70.902794,162.749191 71.805267,163.084045 
	C72.952576,164.174561 74.099884,165.265076 75.149597,167.179382 
	C75.947678,172.977722 80.212128,174.346298 85.009850,174.992264 
	C85.009850,174.992264 85.040375,174.917725 85.241035,175.405380 
	C85.535912,175.580963 85.830780,175.756561 86.042900,175.955002 
	C86.042900,175.955002 86.063545,175.871689 86.271980,176.388840 
	C86.588219,176.564743 86.904457,176.740631 87.772522,177.090118 
	C88.174057,177.500031 88.575592,177.909927 88.982330,179.076828 
	C88.769852,182.243683 90.932137,182.073715 93.000710,181.999771 
	C93.000710,181.999771 93.023865,181.949432 93.243843,182.428253 
	C93.545860,182.590195 93.847878,182.752121 94.063705,182.934280 
	C94.063705,182.934280 94.081451,182.847534 94.266869,183.368759 
	C94.584030,183.531967 94.901192,183.695190 95.108849,183.890076 
	C95.108849,183.890076 95.125481,183.777298 95.318047,184.342804 
	C95.660934,184.518570 96.003822,184.694351 96.735672,184.929520 
	C96.995125,185.056366 97.140450,185.263367 97.113449,186.280167 
	C97.793266,188.888855 98.787781,191.061752 102.779182,190.132996 
	C104.151550,191.291107 105.523918,192.449203 107.185486,193.851364 
	C109.662010,191.010651 111.913376,188.428223 114.185020,185.822525 
	C102.641235,177.139526 100.359222,164.907333 108.209259,155.402802 
	C116.330902,145.569427 128.440063,145.973618 139.701889,156.614441 
	C141.774170,154.253830 143.840942,151.899490 146.003723,149.435776 
	C144.926804,148.193863 143.966812,147.086792 143.007874,145.169144 
	C143.243652,141.795410 141.145081,141.796356 138.879074,142.147141 
	C138.879074,142.147141 138.809830,142.279846 138.667236,141.712372 
	C138.321045,141.585373 137.974838,141.458389 137.984680,141.213348 
	C137.984680,141.213348 137.642578,141.367294 137.861115,140.530624 
	C138.083359,138.862030 138.305588,137.193436 138.579132,135.673782 
	C138.579132,135.673782 138.605225,135.518433 139.163956,135.644852 
	C139.431076,135.396698 139.698181,135.148560 140.227661,134.470596 
	C140.679153,134.265503 141.130646,134.060410 142.190475,133.743347 
	C142.418564,133.417679 142.646652,133.091995 142.897568,132.897018 
	C142.897568,132.897018 142.766861,132.874344 143.344620,132.671967 
z"/>
<path fill="#C2D8B6" opacity="1.000000" stroke="none" 
	d="
M84.064301,33.034447 
	C87.774368,29.060394 91.484436,25.086342 95.607903,20.669476 
	C99.673676,24.066395 103.689041,27.421196 108.250801,31.232510 
	C109.636147,29.244068 111.135597,27.370564 112.332718,25.320507 
	C115.722450,19.515640 121.644073,16.797245 128.417313,18.100803 
	C133.571350,19.092731 138.131149,23.772158 138.943954,28.903622 
	C140.083328,36.096806 137.481705,41.610981 131.438110,44.799725 
	C130.137100,45.486172 128.827362,46.156124 126.708923,47.255405 
	C131.044846,51.234184 134.980087,54.845272 139.061874,58.590836 
	C138.150055,60.067303 137.434433,61.346977 136.603287,62.546616 
	C134.896698,65.009827 133.313568,65.647713 130.604492,63.265152 
	C119.214119,53.247620 103.634941,56.639904 97.913979,70.585846 
	C95.478958,76.521667 95.834450,85.583328 103.327484,91.881035 
	C105.871529,94.019249 106.777809,95.945953 104.518440,98.997589 
	C101.799042,102.670540 99.338875,102.513283 96.102966,98.871613 
	C92.913635,96.120720 90.164383,93.827751 86.323357,90.624191 
	C86.158295,93.877968 86.079117,95.438835 85.999931,96.999695 
	C85.094833,98.484238 84.189735,99.968788 82.862907,101.878036 
	C81.882011,103.159645 81.322845,104.016548 80.763680,104.873459 
	C75.783806,105.932724 70.816788,107.920189 65.242096,104.733856 
	C59.746494,100.476814 57.270500,95.406631 58.512112,89.140640 
	C59.822762,82.526237 65.009476,79.643852 71.247658,78.094940 
	C71.285751,77.654762 71.323845,77.214584 71.361938,76.774406 
	C69.671181,75.798042 67.980415,74.821671 66.289650,73.845299 
	C64.229469,71.759293 62.012745,69.800682 60.170712,67.537148 
	C59.146637,66.278748 58.747322,64.511925 58.421936,62.508469 
	C59.899849,60.721252 61.022263,59.399815 62.144676,58.078377 
	C67.029549,52.804356 71.949837,47.562450 76.778496,42.237465 
	C78.300438,40.559090 79.576866,38.658081 81.357574,36.434410 
	C82.521095,35.018047 83.292694,34.026249 84.064301,33.034447 
z"/>
<path fill="#90CBFD" opacity="1.000000" stroke="none" 
	d="
M56.976418,150.065216 
	C56.228504,149.435822 55.480595,148.806427 54.384064,147.745026 
	C53.339802,146.650894 52.644165,145.988770 51.948532,145.326630 
	C47.728542,141.717026 43.508553,138.107422 38.940605,133.965363 
	C37.061749,132.288177 35.530849,131.143448 33.999950,129.998718 
	C33.792587,129.742630 33.585220,129.486557 33.017464,128.829102 
	C30.430130,126.637444 28.203190,124.847168 25.976250,123.056885 
	C24.916281,122.053467 23.856310,121.050056 22.389175,119.664093 
	C20.990107,118.517349 19.998201,117.753166 19.006294,116.988976 
	C19.006294,116.988976 18.999695,117.000000 18.840845,116.671387 
	C16.174900,114.109871 16.463499,111.579323 17.892494,108.927361 
	C20.519575,105.868805 23.146654,102.810249 26.247753,99.359070 
	C29.502266,95.653740 32.282757,92.341034 35.063248,89.028328 
	C36.355865,87.623291 37.648483,86.218254 39.346237,84.409973 
	C42.838131,80.341011 45.924885,76.675301 49.011635,73.009583 
	C49.011635,73.009583 49.000694,72.999695 49.226868,72.904526 
	C49.737682,72.608650 49.900185,72.335327 49.940548,71.989388 
	C50.537891,71.473839 51.135235,70.958298 52.234718,70.166565 
	C55.652569,71.625275 58.568279,73.360176 61.598122,75.162994 
	C52.874348,86.189804 50.576946,94.226395 54.292934,101.311043 
	C57.967266,108.316277 63.604504,112.820976 72.022453,112.728516 
	C72.456535,112.758057 72.890610,112.787598 74.026276,112.837608 
	C77.899467,111.278938 81.071075,109.699791 84.242683,108.120651 
	C85.814247,106.646339 87.385811,105.172028 89.306656,103.224030 
	C91.411697,103.218468 93.167450,103.686577 94.923195,104.154694 
	C95.024551,104.454445 95.207764,104.690712 95.751945,105.273689 
	C95.593872,107.086060 95.495583,108.747360 94.657730,109.843193 
	C91.824150,113.549225 88.728401,117.054802 85.540054,120.867569 
	C98.274910,124.803406 101.215843,127.782028 101.064903,136.003754 
	C100.934868,143.086319 97.436485,147.856537 90.130707,149.386322 
	C79.914543,151.525528 75.145065,145.122650 72.297211,135.322159 
	C69.227646,139.065216 67.185249,142.064285 64.625107,144.524582 
	C62.376934,146.685089 59.548546,148.241821 56.976418,150.065216 
z"/>
<path fill="#0F3E67" opacity="1.000000" stroke="none" 
	d="
M75.247200,166.355591 
	C74.099884,165.265076 72.952576,164.174561 71.411026,162.738235 
	C70.692368,162.232635 70.367950,162.072861 70.043541,161.913071 
	C70.043541,161.913071 70.020264,161.990219 69.964828,161.721954 
	C69.607521,161.299026 69.305634,161.144379 69.003754,160.989716 
	C67.924370,159.943710 66.844994,158.897705 65.326805,157.455444 
	C64.776024,155.873108 64.129799,154.312790 64.650299,153.569794 
	C66.343040,151.153412 68.462555,149.035995 70.419533,146.801529 
	C82.473633,157.780624 93.821709,157.987122 102.557114,147.726318 
	C109.095032,140.046753 108.882256,126.521828 97.318863,117.730263 
	C100.759544,111.144920 100.697289,111.224510 106.254089,115.571045 
	C109.690788,118.259232 113.351692,120.660789 116.989273,123.245972 
	C117.595604,120.749786 117.816437,118.422157 118.713142,116.393227 
	C122.712151,107.344856 131.575867,105.474556 141.859024,111.354126 
	C141.867828,111.661133 142.006622,111.888947 142.588745,112.400566 
	C143.885345,114.233620 144.868622,115.703674 145.851898,117.173737 
	C145.851898,117.173737 145.938934,117.066177 145.904572,117.540070 
	C145.558670,121.996880 145.247116,125.979813 144.935577,129.962738 
	C144.935577,129.962738 145.003601,129.983215 144.757339,130.047470 
	C144.225113,130.338287 144.122818,130.629410 144.204178,130.985062 
	C144.204178,130.985062 143.896362,131.219971 143.609436,131.539368 
	C143.137283,132.197296 142.952072,132.535812 142.766861,132.874344 
	C142.766861,132.874344 142.897568,132.897018 142.599487,132.915970 
	C142.061646,133.241730 141.821899,133.548538 141.582153,133.855347 
	C141.130646,134.060410 140.679153,134.265503 139.829163,134.682281 
	C139.155518,135.102127 138.880371,135.310272 138.605225,135.518433 
	C138.605225,135.518433 138.579132,135.673782 138.212616,135.673370 
	C136.312836,136.181992 134.779556,136.691025 132.705750,137.379517 
	C134.599213,138.908981 136.120895,140.138138 137.642578,141.367294 
	C137.642578,141.367294 137.984680,141.213348 137.919250,141.517853 
	C138.172470,141.974838 138.491150,142.127350 138.809830,142.279846 
	C138.809830,142.279846 138.879074,142.147141 138.945709,142.479614 
	C140.343826,143.867966 141.675339,144.923843 143.006836,145.979736 
	C143.966812,147.086792 144.926804,148.193863 146.003723,149.435776 
	C143.840942,151.899490 141.774170,154.253830 139.701889,156.614441 
	C128.440063,145.973618 116.330902,145.569427 108.209259,155.402802 
	C100.359222,164.907333 102.641235,177.139526 114.185020,185.822525 
	C111.913376,188.428223 109.662010,191.010651 107.185486,193.851364 
	C105.523918,192.449203 104.151550,191.291107 102.323662,189.732162 
	C100.302635,188.071045 98.737137,186.810760 97.171631,185.550491 
	C97.140450,185.263367 96.995125,185.056366 96.422356,184.633972 
	C95.781181,184.151382 95.453331,183.964340 95.125481,183.777298 
	C95.125481,183.777298 95.108849,183.890076 95.071716,183.614868 
	C94.716866,183.175613 94.399155,183.011581 94.081451,182.847534 
	C94.081451,182.847534 94.063705,182.934280 94.020920,182.667511 
	C93.660042,182.250305 93.341949,182.099869 93.023865,181.949432 
	C93.023865,181.949432 93.000710,181.999771 92.909927,181.692657 
	C91.538483,180.363647 90.257805,179.341736 88.977127,178.319824 
	C88.575592,177.909927 88.174057,177.500031 87.400848,176.739807 
	C86.707306,176.216904 86.385422,176.044296 86.063545,175.871689 
	C86.063545,175.871689 86.042900,175.955002 86.005020,175.683578 
	C85.658218,175.247345 85.349297,175.082535 85.040375,174.917725 
	C85.040375,174.917725 85.009850,174.992264 84.903427,174.664124 
	C81.613731,171.675858 78.430466,169.015717 75.247200,166.355591 
z"/>
<path fill="#F2F9FA" opacity="1.000000" stroke="none" 
	d="
M141.873932,110.962723 
	C131.575867,105.474556 122.712151,107.344856 118.713142,116.393227 
	C117.816437,118.422157 117.595604,120.749786 116.989273,123.245972 
	C113.351692,120.660789 109.690788,118.259232 106.254089,115.571045 
	C100.697289,111.224510 100.759544,111.144920 97.318863,117.730263 
	C108.882256,126.521828 109.095032,140.046753 102.557114,147.726318 
	C93.821709,157.987122 82.473633,157.780624 70.419533,146.801529 
	C68.462555,149.035995 66.343040,151.153412 64.650299,153.569794 
	C64.129799,154.312790 64.776024,155.873108 65.026474,157.324829 
	C63.840630,158.155823 62.516312,158.721191 62.444118,158.751999 
	C60.300388,155.537399 58.708225,153.149902 57.046242,150.413818 
	C59.548546,148.241821 62.376934,146.685089 64.625107,144.524582 
	C67.185249,142.064285 69.227646,139.065216 72.297211,135.322159 
	C75.145065,145.122650 79.914543,151.525528 90.130707,149.386322 
	C97.436485,147.856537 100.934868,143.086319 101.064903,136.003754 
	C101.215843,127.782028 98.274910,124.803406 85.540054,120.867569 
	C88.728401,117.054802 91.824150,113.549225 94.657730,109.843193 
	C95.495583,108.747360 95.593872,107.086060 95.959564,105.366959 
	C101.859230,109.228569 107.830383,113.407104 114.160034,117.836517 
	C114.766624,117.173935 115.794739,116.506508 116.163483,115.577400 
	C119.713737,106.631783 127.301727,106.195442 135.194656,106.467873 
	C138.122330,106.568924 141.334671,106.476387 141.873932,110.962723 
z"/>
<path fill="#F2F9FA" opacity="1.000000" stroke="none" 
	d="
M71.932869,112.394775 
	C63.604504,112.820976 57.967266,108.316277 54.292934,101.311043 
	C50.576946,94.226395 52.874348,86.189804 61.598122,75.162994 
	C58.568279,73.360176 55.652569,71.625275 52.349438,69.888092 
	C54.324429,66.285477 56.331009,68.293800 58.676712,70.078712 
	C60.795990,71.691330 63.295601,72.804123 65.958572,73.991318 
	C67.980415,74.821671 69.671181,75.798042 71.361938,76.774406 
	C71.323845,77.214584 71.285751,77.654762 71.247658,78.094940 
	C65.009476,79.643852 59.822762,82.526237 58.512112,89.140640 
	C57.270500,95.406631 59.746494,100.476814 64.868958,104.683304 
	C64.092125,105.407234 63.147579,105.834702 62.203037,106.262169 
	C62.921318,107.225563 63.437790,108.585419 64.397728,109.074036 
	C66.771400,110.282249 69.348145,111.091476 71.932869,112.394775 
z"/>
<path fill="#F2F9FA" opacity="1.000000" stroke="none" 
	d="
M17.572430,108.793404 
	C16.463499,111.579323 16.174900,114.109871 18.845882,116.668045 
	C17.029911,116.495255 14.650020,116.491295 13.210535,115.325829 
	C12.247452,114.546074 11.898593,111.664841 12.595662,110.549362 
	C13.314708,109.398720 15.633482,109.247772 17.572430,108.793404 
z"/>
<path fill="#F2F9FA" opacity="1.000000" stroke="none" 
	d="
M48.618771,73.006058 
	C45.924885,76.675301 42.838131,80.341011 39.422062,84.099396 
	C42.155499,80.477211 42.184177,74.285873 48.618771,73.006058 
z"/>
<path fill="#F2F9FA" opacity="1.000000" stroke="none" 
	d="
M86.416962,96.998825 
	C86.079117,95.438835 86.158295,93.877968 86.323357,90.624191 
	C90.164383,93.827751 92.913635,96.120720 95.790123,98.723679 
	C92.889572,98.355095 89.861778,97.676529 86.416962,96.998825 
z"/>
<path fill="#F2F9FA" opacity="1.000000" stroke="none" 
	d="
M75.198395,166.767487 
	C78.430466,169.015717 81.613731,171.675858 84.936958,174.641815 
	C80.212128,174.346298 75.947678,172.977722 75.198395,166.767487 
z"/>
<path fill="#F2F9FA" opacity="1.000000" stroke="none" 
	d="
M34.705734,89.049919 
	C32.282757,92.341034 29.502266,95.653740 26.398533,99.061295 
	C26.385757,93.787056 29.942757,91.081268 34.705734,89.049919 
z"/>
<path fill="#F2F9FA" opacity="1.000000" stroke="none" 
	d="
M145.308273,129.910156 
	C145.247116,125.979813 145.558670,121.996880 145.841248,117.567917 
	C146.847534,118.904205 148.840668,120.770065 148.694199,122.449310 
	C148.472855,124.987022 146.760010,127.394653 145.308273,129.910156 
z"/>
<path fill="#F2F9FA" opacity="1.000000" stroke="none" 
	d="
M83.827705,108.116570 
	C81.071075,109.699791 77.899467,111.278938 74.348839,112.782089 
	C75.233368,107.301834 80.380997,109.881958 83.827705,108.116570 
z"/>
<path fill="#F2F9FA" opacity="1.000000" stroke="none" 
	d="
M94.942581,103.767365 
	C93.167450,103.686577 91.411697,103.218468 89.360817,102.891083 
	C88.686302,101.963577 88.306915,100.895340 87.927521,99.827110 
	C88.415451,99.413589 88.903381,99.000076 89.391304,98.586555 
	C91.248192,100.184387 93.105080,101.782219 94.942581,103.767365 
z"/>
<path fill="#F2F9FA" opacity="1.000000" stroke="none" 
	d="
M137.751846,140.948959 
	C136.120895,140.138138 134.599213,138.908981 132.705750,137.379517 
	C134.779556,136.691025 136.312836,136.181992 138.186966,135.598892 
	C138.305588,137.193436 138.083359,138.862030 137.751846,140.948959 
z"/>
<path fill="#F2F9FA" opacity="1.000000" stroke="none" 
	d="
M25.988628,123.416275 
	C28.203190,124.847168 30.430130,126.637444 32.785522,128.731995 
	C30.609652,127.282730 28.305330,125.529198 25.988628,123.416275 
z"/>
<path fill="#F2F9FA" opacity="1.000000" stroke="none" 
	d="
M97.142548,185.915329 
	C98.737137,186.810760 100.302635,188.071045 102.018250,189.630890 
	C98.787781,191.061752 97.793266,188.888855 97.142548,185.915329 
z"/>
<path fill="#F2F9FA" opacity="1.000000" stroke="none" 
	d="
M34.005291,130.367630 
	C35.530849,131.143448 37.061749,132.288177 38.693031,133.733063 
	C37.199150,132.934341 35.604893,131.835434 34.005291,130.367630 
z"/>
<path fill="#F2F9FA" opacity="1.000000" stroke="none" 
	d="
M88.979736,178.698334 
	C90.257805,179.341736 91.538483,180.363647 92.933258,181.677704 
	C90.932137,182.073715 88.769852,182.243683 88.979736,178.698334 
z"/>
<path fill="#F2F9FA" opacity="1.000000" stroke="none" 
	d="
M143.007355,145.574432 
	C141.675339,144.923843 140.343826,143.867966 138.881653,142.518311 
	C141.145081,141.796356 143.243652,141.795410 143.007355,145.574432 
z"/>
<path fill="#F2F9FA" opacity="1.000000" stroke="none" 
	d="
M61.781418,58.081345 
	C61.022263,59.399815 59.899849,60.721252 58.453918,62.139656 
	C59.226318,60.852516 60.322239,59.468414 61.781418,58.081345 
z"/>
<path fill="#F2F9FA" opacity="1.000000" stroke="none" 
	d="
M145.904358,116.768921 
	C144.868622,115.703674 143.885345,114.233620 142.791931,112.445267 
	C145.760773,112.003288 146.087509,114.006912 145.904358,116.768921 
z"/>
<path fill="#F2F9FA" opacity="1.000000" stroke="none" 
	d="
M83.678391,33.030758 
	C83.292694,34.026249 82.521095,35.018047 81.429047,36.102161 
	C81.836571,35.138672 82.564529,34.082870 83.678391,33.030758 
z"/>
<path fill="#F2F9FA" opacity="1.000000" stroke="none" 
	d="
M19.038507,117.338028 
	C19.998201,117.753166 20.990107,118.517349 22.075432,119.600372 
	C21.136143,119.175163 20.103432,118.431114 19.038507,117.338028 
z"/>
<path fill="#F2F9FA" opacity="1.000000" stroke="none" 
	d="
M51.971493,145.658325 
	C52.644165,145.988770 53.339802,146.650894 54.115410,147.609863 
	C53.461742,147.267807 52.728100,146.628906 51.971493,145.658325 
z"/>
<path fill="#F2F9FA" opacity="1.000000" stroke="none" 
	d="
M81.130295,104.875832 
	C81.322845,104.016548 81.882011,103.159645 82.729965,102.175674 
	C82.511475,102.991814 82.004196,103.935013 81.130295,104.875832 
z"/>
<path fill="#F2F9FA" opacity="1.000000" stroke="none" 
	d="
M94.174164,183.108154 
	C94.399155,183.011581 94.716866,183.175613 95.126465,183.599030 
	C94.901192,183.695190 94.584030,183.531967 94.174164,183.108154 
z"/>
<path fill="#F2F9FA" opacity="1.000000" stroke="none" 
	d="
M95.221764,184.060059 
	C95.453331,183.964340 95.781181,184.151382 96.227875,184.604263 
	C96.003822,184.694351 95.660934,184.518570 95.221764,184.060059 
z"/>
<path fill="#F2F9FA" opacity="1.000000" stroke="none" 
	d="
M93.133850,182.188843 
	C93.341949,182.099869 93.660042,182.250305 94.064018,182.657394 
	C93.847878,182.752121 93.545860,182.590195 93.133850,182.188843 
z"/>
<path fill="#F2F9FA" opacity="1.000000" stroke="none" 
	d="
M86.167763,176.130264 
	C86.385422,176.044296 86.707306,176.216904 87.124939,176.653015 
	C86.904457,176.740631 86.588219,176.564743 86.167763,176.130264 
z"/>
<path fill="#F2F9FA" opacity="1.000000" stroke="none" 
	d="
M144.398117,130.864380 
	C144.122818,130.629410 144.225113,130.338287 144.735535,130.019424 
	C144.947083,130.248764 144.824432,130.520950 144.398117,130.864380 
z"/>
<path fill="#F2F9FA" opacity="1.000000" stroke="none" 
	d="
M85.140701,175.161560 
	C85.349297,175.082535 85.658218,175.247345 86.046394,175.672150 
	C85.830780,175.756561 85.535912,175.580963 85.140701,175.161560 
z"/>
<path fill="#F2F9FA" opacity="1.000000" stroke="none" 
	d="
M70.157700,162.163193 
	C70.367950,162.072861 70.692368,162.232635 71.117523,162.654770 
	C70.902794,162.749191 70.587326,162.581253 70.157700,162.163193 
z"/>
<path fill="#F2F9FA" opacity="1.000000" stroke="none" 
	d="
M69.112022,161.221771 
	C69.305634,161.144379 69.607521,161.299026 69.999756,161.701874 
	C69.800171,161.784653 69.510231,161.619247 69.112022,161.221771 
z"/>
<path fill="#F2F9FA" opacity="1.000000" stroke="none" 
	d="
M138.738525,141.996124 
	C138.491150,142.127350 138.172470,141.974838 137.741211,141.576874 
	C137.974838,141.458389 138.321045,141.585373 138.738525,141.996124 
z"/>
<path fill="#F2F9FA" opacity="1.000000" stroke="none" 
	d="
M138.884583,135.581635 
	C138.880371,135.310272 139.155518,135.102127 139.697983,134.897202 
	C139.698181,135.148560 139.431076,135.396698 138.884583,135.581635 
z"/>
<path fill="#F2F9FA" opacity="1.000000" stroke="none" 
	d="
M141.886322,133.799347 
	C141.821899,133.548538 142.061646,133.241730 142.588074,132.850616 
	C142.646652,133.091995 142.418564,133.417679 141.886322,133.799347 
z"/>
<path fill="#F2F9FA" opacity="1.000000" stroke="none" 
	d="
M143.055740,132.773163 
	C142.952072,132.535812 143.137283,132.197296 143.590042,131.731995 
	C143.686600,131.960815 143.515610,132.316391 143.055740,132.773163 
z"/>
<path fill="#F2F9FA" opacity="1.000000" stroke="none" 
	d="
M49.730072,72.103287 
	C49.900185,72.335327 49.737682,72.608650 49.229919,72.909775 
	C49.087345,72.687393 49.258278,72.423058 49.730072,72.103287 
z"/>
</svg>